<svg xmlns="http://www.w3.org/2000/svg" width="45.461" height="40.113" viewBox="0 0 45.461 40.113"><defs><style>.a{fill:#fdf7f7;fill-rule:evenodd;}</style></defs><path class="a" d="M.075,6.81A6.686,6.686,0,0,1,6.76.125h32.09A6.685,6.685,0,0,1,45.536,6.81V33.552a6.685,6.685,0,0,1-6.685,6.685H6.76A6.686,6.686,0,0,1,.075,33.552ZM6.76,2.8A4.011,4.011,0,0,0,2.749,6.81V33.552A4.011,4.011,0,0,0,6.76,37.564h32.09a4.011,4.011,0,0,0,4.011-4.011V6.81A4.011,4.011,0,0,0,38.851,2.8H24.143V37.564H21.469V2.8Z" transform="translate(-0.075 -0.125)"/></svg>