<svg xmlns="http://www.w3.org/2000/svg" width="45.427" height="33.649" viewBox="0 0 45.427 33.649"><defs><style>.a,.b{fill:#fcf2f2;}.a{fill-rule:evenodd;}</style></defs><path class="a" d="M1.857.225A1.682,1.682,0,0,0,.175,1.907V5.272A1.682,1.682,0,0,0,1.857,6.955H5.222A1.682,1.682,0,0,0,6.9,5.272V1.907A1.682,1.682,0,0,0,5.222.225ZM5.222,1.907H1.857V5.272H5.222Z" transform="translate(-0.175 -0.225)"/><path class="b" d="M.35,1.932A1.682,1.682,0,0,1,2.032.25H32.317a1.682,1.682,0,1,1,0,3.365H2.032A1.682,1.682,0,0,1,.35,1.932ZM2.032,13.71a1.682,1.682,0,1,0,0,3.365H32.317a1.682,1.682,0,1,0,0-3.365Zm0,13.46a1.682,1.682,0,1,0,0,3.365H32.317a1.682,1.682,0,1,0,0-3.365Z" transform="translate(11.428 1.432)"/><path class="a" d="M.175,2.107A1.682,1.682,0,0,1,1.857.425H5.222A1.682,1.682,0,0,1,6.9,2.107V5.472A1.682,1.682,0,0,1,5.222,7.155H1.857A1.682,1.682,0,0,1,.175,5.472Zm1.682,0H5.222V5.472H1.857Zm0,11.777A1.682,1.682,0,0,0,.175,15.567v3.365a1.682,1.682,0,0,0,1.682,1.682H5.222A1.682,1.682,0,0,0,6.9,18.932V15.567a1.682,1.682,0,0,0-1.682-1.682Zm3.365,1.682H1.857v3.365H5.222Z" transform="translate(-0.175 13.035)"/></svg>