<svg xmlns="http://www.w3.org/2000/svg" width="21.988" height="21.989" viewBox="0 0 21.988 21.989"><defs><style>.a{fill-rule:evenodd;}</style></defs><path class="a" d="M16.316.61a1.571,1.571,0,0,1,2.221,0l3.141,3.141a1.571,1.571,0,0,1,0,2.221L7.543,20.107a1.571,1.571,0,0,1-.613.38L2.219,22.057A1.571,1.571,0,0,1,.231,20.071L1.8,15.359a1.571,1.571,0,0,1,.38-.614L16.316.61Zm1.11,1.11,3.141,3.141L6.433,19,1.721,20.567l1.571-4.712Z" transform="translate(-0.15 -0.15)"/><path class="a" d="M14.614,5.3,10.688,1.369,11.8.257l3.926,3.926ZM.25,11.022v.785a.785.785,0,0,0,.785.785h.785v.785a.785.785,0,0,0,.785.785h.785v.785a.785.785,0,0,0,.785.785h.785V13.378a.785.785,0,0,0-.785-.785H3.391v-.785a.785.785,0,0,0-.785-.785Z" transform="translate(2.892 3.113)"/></svg>