<svg xmlns="http://www.w3.org/2000/svg" width="46.553" height="34.137" viewBox="0 0 46.553 34.137"><defs><style>.a{fill-rule:evenodd;}</style></defs><path class="a" d="M1.131,21.6a1.552,1.552,0,0,1,0-2.2l8.215-8.211L1.131,2.977a1.554,1.554,0,1,1,2.2-2.2l9.31,9.31a1.552,1.552,0,0,1,0,2.2L3.328,21.6a1.552,1.552,0,0,1-2.2,0Z" transform="translate(33.459 5.879)"/><path class="a" d="M.325,2.027A1.552,1.552,0,0,1,1.877.475h27.93a1.552,1.552,0,1,1,0,3.1H1.877A1.552,1.552,0,0,1,.325,2.027Z" transform="translate(12.088 15.042)"/><path class="a" d="M4.78,34.362A4.655,4.655,0,0,1,.125,29.707V4.88A4.655,4.655,0,0,1,4.78.225H26.5A4.655,4.655,0,0,1,31.158,4.88V9.535a1.552,1.552,0,1,1-3.1,0V4.88A1.552,1.552,0,0,0,26.5,3.328H4.78A1.552,1.552,0,0,0,3.228,4.88V29.707A1.552,1.552,0,0,0,4.78,31.258H26.5a1.552,1.552,0,0,0,1.552-1.552V25.052a1.552,1.552,0,1,1,3.1,0v4.655A4.655,4.655,0,0,1,26.5,34.362Z" transform="translate(-0.125 -0.225)"/></svg>