<svg xmlns="http://www.w3.org/2000/svg" width="36.414" height="39.218" viewBox="0 0 36.414 39.218"><defs><style>.a,.b{fill:#fdf8f8;}.b{fill-rule:evenodd;}</style></defs><path class="a" d="M14.18,28.149v9.818a1.4,1.4,0,0,1-1.4,1.4H1.576a1.4,1.4,0,0,1-1.4-1.4V18.36a1.4,1.4,0,0,1,.409-.992L17.39.561a1.4,1.4,0,0,1,1.983,0L36.18,17.368a1.4,1.4,0,0,1,.409.992V37.967a1.4,1.4,0,0,1-1.4,1.4h-11.2a1.4,1.4,0,0,1-1.4-1.4v-9.8a1.506,1.506,0,0,0-1.4-1.4h-5.6A1.5,1.5,0,0,0,14.18,28.149Z" transform="translate(-0.175 -0.15)"/><path class="b" d="M6.252,1.6v9.8L.65,5.8V1.6A1.4,1.4,0,0,1,2.051.2h2.8a1.4,1.4,0,0,1,1.4,1.4Z" transform="translate(25.96 2.604)"/></svg>