<svg xmlns="http://www.w3.org/2000/svg" width="54.333" height="40.75" viewBox="0 0 54.333 40.75"><defs><style>.a{fill:#fcf5f5;fill-rule:evenodd;}</style></defs><path class="a" d="M23.871,40.95a3.326,3.326,0,0,1-3.4-3.4c0-3.4,3.4-13.583,16.979-13.583S54.433,34.158,54.433,37.554a3.326,3.326,0,0,1-3.4,3.4ZM37.454,20.575a10.187,10.187,0,1,0-7.2-2.984,10.188,10.188,0,0,0,7.2,2.984ZM17.813,40.95a7.6,7.6,0,0,1-.733-3.4,16.207,16.207,0,0,1,6.574-12.632,21.479,21.479,0,0,0-6.574-.951C3.5,23.971.1,34.158.1,37.554a3.326,3.326,0,0,0,3.4,3.4ZM15.381,20.575a8.49,8.49,0,1,0-6-2.487,8.49,8.49,0,0,0,6,2.487Z" transform="translate(-0.1 -0.2)"/></svg>