<svg xmlns="http://www.w3.org/2000/svg" width="27.919" height="27.919" viewBox="0 0 27.919 27.919"><defs><style>.a{fill-rule:evenodd;}</style></defs><path class="a" d="M1.117,1.119a1.745,1.745,0,0,1,2.469,0L10.3,7.837a1.745,1.745,0,1,1-2.467,2.469L1.119,3.588a1.745,1.745,0,0,1,0-2.469Z" transform="translate(17.103 17.101)"/><path class="a" d="M11.442,21.039a9.6,9.6,0,1,0-6.786-2.811,9.6,9.6,0,0,0,6.786,2.811Zm11.342-9.6a11.342,11.342,0,1,1-3.322-8.02,11.342,11.342,0,0,1,3.322,8.02Z" transform="translate(-0.1 -0.1)"/></svg>