<svg xmlns="http://www.w3.org/2000/svg" width="53.288" height="39.971" viewBox="0 0 53.288 39.971"><defs><style>.a{fill:#faf4f4;fill-rule:evenodd;}</style></defs><path class="a" d="M15.377,36.361a1.9,1.9,0,0,1,1.9-1.9H51.535a1.9,1.9,0,1,1,0,3.806H17.28a1.9,1.9,0,0,1-1.9-1.9Zm0-15.224a1.9,1.9,0,0,1,1.9-1.9H51.535a1.9,1.9,0,1,1,0,3.806H17.28a1.9,1.9,0,0,1-1.9-1.9Zm0-15.224a1.9,1.9,0,0,1,1.9-1.9H51.535a1.9,1.9,0,1,1,0,3.806H17.28a1.9,1.9,0,0,1-1.9-1.9ZM11.015.759a1.9,1.9,0,0,1,0,2.695L5.306,9.163a1.9,1.9,0,0,1-2.695,0l-1.9-1.9A1.905,1.905,0,1,1,3.4,4.565l.556.56L8.32.759a1.9,1.9,0,0,1,2.695,0Zm0,15.224a1.9,1.9,0,0,1,0,2.695L5.306,24.387a1.9,1.9,0,0,1-2.695,0l-1.9-1.9A1.905,1.905,0,0,1,3.4,19.79l.556.559L8.32,15.984a1.9,1.9,0,0,1,2.695,0Zm0,15.224a1.9,1.9,0,0,1,0,2.695L5.306,39.612a1.9,1.9,0,0,1-2.695,0l-1.9-1.9A1.905,1.905,0,1,1,3.4,35.014l.556.56L8.32,31.208a1.9,1.9,0,0,1,2.695,0Z" transform="translate(-0.15 -0.2)"/></svg>