<svg xmlns="http://www.w3.org/2000/svg" width="33.828" height="27.678" viewBox="0 0 33.828 27.678"><defs><style>.a{fill:#f7eded;fill-rule:evenodd;}</style></defs><path class="a" d="M.225,26.39a1.538,1.538,0,0,1,1.538-1.538H32.516a1.538,1.538,0,1,1,0,3.075H1.763A1.538,1.538,0,0,1,.225,26.39Zm0-12.3a1.538,1.538,0,0,1,1.538-1.538H32.516a1.538,1.538,0,1,1,0,3.075H1.763A1.538,1.538,0,0,1,.225,14.089Zm0-12.3A1.538,1.538,0,0,1,1.763.25H32.516a1.538,1.538,0,1,1,0,3.075H1.763A1.538,1.538,0,0,1,.225,1.788Z" transform="translate(-0.225 -0.25)"/></svg>