<svg xmlns="http://www.w3.org/2000/svg" width="42.913" height="42.913" viewBox="0 0 42.913 42.913"><defs><style>.a,.b{fill:#fcf5f5;}.a{fill-rule:evenodd;}</style></defs><path class="a" d="M37.649,2.782H5.464A2.682,2.682,0,0,0,2.782,5.464V37.649a2.682,2.682,0,0,0,2.682,2.682H37.649a2.682,2.682,0,0,0,2.682-2.682V5.464a2.682,2.682,0,0,0-2.682-2.682ZM5.464.1A5.364,5.364,0,0,0,.1,5.464V37.649a5.364,5.364,0,0,0,5.364,5.364H37.649a5.364,5.364,0,0,0,5.364-5.364V5.464A5.364,5.364,0,0,0,37.649.1Z" transform="translate(-0.1 -0.1)"/><path class="a" d="M37.7,2.932H.15V.25H37.7Z" transform="translate(2.531 7.796)"/><path class="a" d="M.35,37.724V.175H3.032V37.724Zm13.41,0V.175h2.682V37.724Z" transform="translate(13.06 3.848)"/><path class="a" d="M37.7,3.132H.15V.45H37.7Zm0,10.728H.15V11.178H37.7Z" transform="translate(2.531 18.324)"/><path class="b" d="M.1,5.464A5.364,5.364,0,0,1,5.464.1H37.649a5.364,5.364,0,0,1,5.364,5.364v5.364H.1Z" transform="translate(-0.1 -0.1)"/></svg>